<svg xmlns="http://www.w3.org/2000/svg" viewBox="0 0 600 672.0942383"><switch><g><path fill="#ed4036" d="M552.128 564.931L300 660.923 47.872 564.93 11.154 10.441h577.692z"/><path d="M588.846 10.44l-36.718 554.491L300 660.923 47.872 564.931 11.154 10.441h577.692M600 0H0l.737 11.13 36.717 554.49.443 6.685 6.26 2.383 252.128 95.992 3.715 1.414 3.715-1.414 252.128-95.992 6.26-2.383.443-6.684L599.263 11.13 600 0z" fill="#e6e6e7"/><path fill="#f0582a" d="M298.077 42.254v578.715l1.251.223 218.474-83.635 36.243-495.303z"/><path d="M117.586 406.878h368.018v-8.7H117.586v8.7zm229.331-35l29.059-219.455h.691l31.134 219.455h35.976l43.934-332.172h-40.128l-23.87 211.633h-.691L393.964 39.706h-35.285l-28.02 211.633h-.692L303.676 39.706h-40.128l47.392 332.172h35.977zm-163.96 4.6c42.55 0 62.268-31.283 62.268-97.534 0-45.087-5.535-64.87-30.788-82.354 22.14-16.102 26.982-37.725 26.982-76.37 0-44.168-18.68-85.115-55.694-85.115-37.36 0-58.462 32.206-58.462 77.293v15.642h38.744v-13.802c0-26.225 7.265-34.045 19.372-34.045 12.8 0 17.297 12.882 17.297 44.166 0 39.567-9.686 50.608-34.94 50.608v45.088c26.291 0 36.67 11.041 36.67 46.927v25.303c0 27.605-7.957 39.107-20.411 39.107-13.145 0-19.372-12.421-19.372-33.125v-22.544H125.88v19.783c0 57.05 21.448 80.972 57.078 80.972zm218.501 113.913h-.213l-9.404-59.978h-17.42v102.616h11.542v-80.16h.213l11.97 80.16h6.412l11.968-80.16h.215v80.16h11.54V430.413h-17.418l-9.405 59.978zM458.1 469.5h-.214l-9.297-39.086h-13.465l16.03 59.978v42.638h13.251v-42.64l16.03-59.978H466.97l-8.87 39.086zm-117.128 18.05h17.098V472.2h-17.098v-26.435H363.2v-15.351h-35.48V533.03h36.976v-15.35h-23.724v-30.13zm-147.27-58.557c-13.892 0-20.304 11.796-20.304 26.294v52.87c0 14.497 6.412 26.293 20.305 26.293 13.251 0 19.663-11.796 19.663-26.292V496.36h-13.251v12.363c0 6.682-1.603 10.376-6.412 10.376-5.344 0-7.053-3.694-7.053-11.37V455.71c0-7.674 1.71-11.37 7.053-11.37 3.42 0 6.412 3.696 6.412 12.366v7.96h13.251v-7.534c0-15.349-6.412-28.141-19.663-28.141zm100.246 1.42h-19.664V533.03h19.664c13.678 0 20.945-9.95 20.945-30.984v-40.648c0-21.035-7.267-30.984-20.945-30.984zm7.694 73.765c0 10.802-2.458 14.355-9.512 14.355h-4.595v-73.621h4.595c7.054 0 9.512 3.553 9.512 14.355v44.911zm-166.61-73.764L120.82 533.029h12.825l2.35-22.741h14.535l2.35 22.74h12.824l-14.212-102.615h-16.458zm2.886 64.525l5.237-44.058h.213l5.237 44.058h-10.687zm98-64.525L221.705 533.03h12.824l2.35-22.741h14.535l2.351 22.74h12.825l-14.214-102.615h-16.458zm2.885 64.525l5.237-44.058h.214l5.236 44.058h-10.687z" fill="#fff"/></g></switch></svg>