<svg width="116" height="32" viewBox="0 0 116 32" fill="none" xmlns="http://www.w3.org/2000/svg">
<path d="M10.6937 30.4654C8.95589 30.4654 7.39904 30.1831 6.0232 29.6197C4.64613 29.0563 3.54056 28.2217 2.70649 27.117C1.89444 26.0123 1.46517 24.6827 1.41992 23.127H7.58004C7.67054 24.0057 7.97506 24.6827 8.49361 25.1556C9.01215 25.6065 9.68967 25.8326 10.5237 25.8326C11.381 25.8326 12.0586 25.6408 12.5551 25.257C13.0516 24.8513 13.2999 24.299 13.2999 23.6C13.2999 23.0134 13.0969 22.5294 12.6896 22.1457C12.3068 21.7632 11.8213 21.4467 11.2355 21.1987C10.6705 20.9506 9.85844 20.6695 8.79813 20.353C7.26452 19.8801 6.01219 19.4071 5.04115 18.933C4.07133 18.4601 3.23604 17.7611 2.5365 16.836C1.83818 15.9121 1.48841 14.706 1.48841 13.2175C1.48841 11.0081 2.28946 9.2838 3.89033 8.04343C5.49243 6.78107 7.58004 6.1505 10.152 6.1505C12.7691 6.1505 14.8788 6.78107 16.4809 8.04343C18.0829 9.2838 18.9403 11.0203 19.0528 13.2518H12.7924C12.7471 12.4855 12.4646 11.888 11.9461 11.459C11.4263 11.0081 10.761 10.7832 9.94895 10.7832C9.2494 10.7832 8.68561 10.9751 8.25635 11.3576C7.82831 11.7193 7.61306 12.2485 7.61306 12.9475C7.61306 13.7137 7.97506 14.3113 8.69662 14.7402C9.41817 15.1679 10.547 15.6298 12.0806 16.126C13.6154 16.6453 14.8567 17.1415 15.8033 17.6144C16.7744 18.0873 17.6084 18.7754 18.308 19.6772C19.0075 20.5791 19.3573 21.74 19.3573 23.16C19.3573 24.5128 19.0075 25.7422 18.308 26.8469C17.6317 27.9516 16.6386 28.8303 15.33 29.4841C14.0215 30.1378 12.4756 30.4654 10.6937 30.4654ZM28.7057 5.20342V30.2283H22.9186V5.20342H28.7057ZM35.8112 9.39623C34.7949 9.39623 33.9608 9.10416 33.3065 8.51758C32.6743 7.90901 32.3587 7.16479 32.3587 6.28492C32.3587 5.38306 32.6743 4.64006 33.3065 4.05349C33.9608 3.44491 34.7949 3.14062 35.8112 3.14062C36.803 3.14062 37.6163 3.44491 38.2473 4.05349C38.9016 4.64006 39.2294 5.38306 39.2294 6.28492C39.2294 7.16479 38.9016 7.90901 38.2473 8.51758C37.6163 9.10416 36.803 9.39623 35.8112 9.39623ZM38.6876 11.3576V30.2283H32.9005V11.3576H38.6876ZM41.7304 20.7929C41.7304 18.8316 42.1254 17.1183 42.9154 15.6531C43.7275 14.1878 44.8441 13.0599 46.2652 12.2705C47.7095 11.4822 49.3568 11.0875 51.2072 11.0875C53.5761 11.0875 55.55 11.7071 57.1301 12.9475C58.7309 14.1878 59.7803 15.9353 60.2768 18.1888H54.1179C53.5981 16.7468 52.5941 16.0246 51.1057 16.0246C50.0454 16.0246 49.1991 16.4425 48.5668 17.2759C47.9358 18.0873 47.619 19.2605 47.619 20.7929C47.619 22.3266 47.9358 23.5095 48.5668 24.3442C49.1991 25.1556 50.0454 25.5613 51.1057 25.5613C52.5941 25.5613 53.5981 24.8403 54.1179 23.3971H60.2768C59.7803 25.6065 58.7309 27.3431 57.1301 28.6054C55.528 29.8678 53.5529 30.4983 51.2072 30.4983C49.3568 30.4983 47.7095 30.1036 46.2652 29.3154C44.8441 28.526 43.7275 27.3993 42.9154 25.9328C42.1254 24.4676 41.7304 22.7543 41.7304 20.7929ZM74.9133 30.2283L69.1592 22.3156V30.2283H63.3721V5.20342H69.1592V19.0344L74.8791 11.3576H82.02L74.1685 20.8272L82.0885 30.2283H74.9133ZM95.8348 30.2283L90.0807 22.3156V30.2283H84.2935V5.20342H90.0807V19.0344L95.8005 11.3576H102.941L95.09 20.8272L103.009 30.2283H95.8348Z" fill="#624748"/>
<path fill-rule="evenodd" clip-rule="evenodd" d="M110.994 2.27633C110.847 1.54331 108.896 1.54331 108.749 2.27633C108.016 5.94141 108.016 9.8243 108.749 13.4894C108.896 14.2224 110.847 14.2224 110.994 13.4894C111.727 9.8243 111.368 4.14517 110.994 2.27633Z" fill="#F16D20"/>
<path fill-rule="evenodd" clip-rule="evenodd" d="M105.547 4.08863C104.839 3.8458 103.856 5.52949 104.416 6.02556C107.214 8.50591 110.57 10.4629 114.108 11.677C114.815 11.9199 115.799 10.2362 115.239 9.7401C112.441 7.25975 107.351 4.70771 105.547 4.08863Z" fill="#F16D20"/>
<path fill-rule="evenodd" clip-rule="evenodd" d="M114.129 4.11188C114.837 3.87288 115.812 5.56187 115.249 6.05491C112.438 8.52008 109.071 10.4589 105.527 11.6538C104.818 11.8928 103.844 10.2038 104.406 9.71081C107.218 7.24565 112.321 4.7212 114.129 4.11188Z" fill="#F16D20"/>
</svg>